HIERARCHY
ROOT pelvis
{
  OFFSET 0 100 0
  CHANNELS 6 Xposition Yposition Zposition Zrotation Xrotation Yrotation
  JOINT pelvis_right_femur
  {
    OFFSET -10.78128 -3.44521 -0.5502486
    CHANNELS 3 Zrotation Xrotation Yrotation
    JOINT right_femur_tibia
    {
      OFFSET -0.8047443 -44.0398 -0.1307829
      CHANNELS 3 Zrotation Xrotation Yrotation
      JOINT right_tibia_foot
      {
        OFFSET 3.006224 -47.83518 -5
        CHANNELS 3 Zrotation Xrotation Yrotation
        End Site
        {
          OFFSET 0 -5 15
        }
      }
    }
  }
  JOINT pelvis_left_femur
  {
    OFFSET 10.78128 -3.44521 -0.5502486
    CHANNELS 3 Zrotation Xrotation Yrotation
    JOINT left_femur_tibia
    {
      OFFSET 0.8047443 -44.0398 -0.1307829
      CHANNELS 3 Zrotation Xrotation Yrotation
      JOINT left_tibia_foot
      {
        OFFSET -4.370144 -48.10324 -4.275266
        CHANNELS 3 Zrotation Xrotation Yrotation
        End Site
        {
          OFFSET 0 -5 15
        }
      }
    }
  }
  JOINT pelvis_spine1
  {
    OFFSET 0 6.468898 -3.129235
    CHANNELS 3 Zrotation Xrotation Yrotation
    JOINT spine1
    {
      OFFSET 0 23.15396 4.99043
      CHANNELS 3 Zrotation Xrotation Yrotation
      JOINT spine2
      {
        OFFSET 0 20.79997 -5.064912
        CHANNELS 3 Zrotation Xrotation Yrotation
        JOINT neck
        {
          OFFSET 0 14.38658 9.616178
          CHANNELS 3 Zrotation Xrotation Yrotation
          End Site
          {
            OFFSET 0 20 0
          }
        }
      }
      JOINT right_manubrium
      {
        OFFSET -5.722621 16.35077 3.967754
        CHANNELS 3 Zrotation Xrotation Yrotation
        JOINT right_clavicle
        {
          OFFSET -13.16364 1.694482 -4.693211
          CHANNELS 3 Zrotation Xrotation Yrotation
          JOINT right_humerus
          {
            OFFSET -28.5034 -0.3100689 -2.792744
            CHANNELS 3 Zrotation Xrotation Yrotation
            JOINT right_radius
            {
              OFFSET -25.15693 0.02248979 -1.271978
              CHANNELS 3 Zrotation Xrotation Yrotation
              End Site
              {
                OFFSET -15 0 0
              }
            }
          }
        }
      }
      JOINT left_manubrium
      {
        OFFSET 5.722621 16.35077 3.967754
        CHANNELS 3 Zrotation Xrotation Yrotation
        JOINT left_clavicle
        {
          OFFSET 13.16364 1.694482 -4.693211
          CHANNELS 3 Zrotation Xrotation Yrotation
          JOINT left_humerus
          {
            OFFSET 29.39168 -1.063119 -2.237045
            CHANNELS 3 Zrotation Xrotation Yrotation
            JOINT left_radius
            {
              OFFSET 24.59957 -0.9528479 0.9047498
              CHANNELS 3 Zrotation Xrotation Yrotation
              End Site
              {
                OFFSET 15 -0 -0
              }
            }
          }
        }
      }
    }
  }
}
MOTION
Frames: 11
Frame Time: 0.0416666666667
-453.7028 105.3286 2933.673 -2.168122 -8.162686 -26.73786 -0.727302 0.9428356 2.963277 -0 49.7745 -0 0.7450263 1.344295 -5.179886 -5.357323 -2.799924 -9.86608 -0 18.49887 -0 -4.06696 -12.60257 17.38727 -0.8271075 -1.213015 7.035895 -0.08656408 13.01876 -5.291779 1.187806 21.16684 5.485423 2.849889 -18.68098 5.941268 1.27446 -22.77064 12.22107 85.02944 23.88013 -11.36657 -0 0 19.97797 -25.56363 13.91524 13.77159 4.405566 -20.72604 -5.28356 -91.13323 16.40552 24.29609 0 0 -12.95943 5.024908 10.79759 6.923118
-455.7151 106.2888 2939.297 -1.838384 -7.345428 -25.8911 -0.3338884 -4.774499 2.721557 -0 47.84307 -0 0.1023587 1.461347 -5.396446 -5.815443 1.920193 -10.89371 -0 17.46656 -0 -3.478656 -14.28941 17.0663 -0.8668197 -1.219224 6.372722 0.2405363 12.9159 -5.913928 1.152424 21.19349 5.657503 2.895612 -18.83336 6.08153 1.295808 -21.66946 12.13198 86.31154 24.12248 -13.66131 -0 0 17.75212 -24.81684 13.98506 12.93251 4.763297 -21.56238 -5.481324 -89.72864 16.60655 21.63595 0 0 -15.559 5.759842 10.97538 6.023095
-457.6846 106.8894 2944.62 -1.545659 -6.133157 -25.13683 0.440099 -10.42101 2.223055 -0 41.8531 -0 -1.222704 0.5896938 -5.162232 -5.768883 5.776926 -11.59516 -0 15.84583 -0 -2.740807 -15.83727 16.67301 -0.8991037 -1.249875 5.684639 0.5971214 12.82828 -6.586104 1.100919 21.20247 5.842865 2.957296 -19.05344 6.218423 1.328104 -20.56209 12.05516 87.69986 24.35086 -16.11302 -0 0 15.43568 -23.98258 14.02924 12.02421 5.141614 -22.4831 -5.688409 -88.31521 16.71681 18.91604 0 0 -18.28411 6.602945 11.187 4.997911
-459.6822 106.9872 2949.722 -1.350188 -4.797512 -24.52728 1.379296 -15.64962 1.494255 -0 33.29789 -0 -2.849258 -0.6372136 -4.719433 -5.359905 8.830173 -11.82563 -0 14.21381 -0 -2.135592 -17.13858 16.05721 -0.9234269 -1.300526 5.018458 0.9576402 12.75701 -7.259044 1.038617 21.19571 6.028114 3.029881 -19.32222 6.344352 1.36912 -19.52093 11.99346 89.09577 24.54582 -18.54518 -0 0 13.18953 -23.11792 14.04146 11.11068 5.513694 -23.41775 -5.887381 -86.99611 16.74179 16.32623 0 0 -20.94014 7.488651 11.41358 3.928073
-461.792 106.5815 2954.739 -1.277991 -3.632892 -24.06278 2.261567 -20.20173 0.6233692 -0 24.24178 -0 -4.357527 -1.566495 -4.324942 -4.804673 11.31863 -11.55396 -0 13.34173 -0 -1.908118 -18.10863 15.13617 -0.9400506 -1.364099 4.413414 1.297476 12.70142 -7.886357 0.9724738 21.17866 6.200061 3.106785 -19.61406 6.453666 1.413433 -18.60315 11.94692 90.40524 24.69617 -20.796 -0 0 11.15052 -22.28002 14.01964 10.25151 5.856326 -24.29939 -6.064701 -85.84924 16.70304 14.02109 0 0 -23.35431 8.353389 11.6394 2.889226
-464.0841 105.7983 2959.826 -1.32797 -2.867629 -23.71597 2.950233 -23.7573 -0.2395047 -0 16.5496 -0 -5.441133 -1.823275 -4.13775 -4.295325 13.34179 -10.85908 -0 13.96071 -0 -2.173835 -18.63387 13.96143 -0.948033 -1.433575 3.913112 1.589078 12.6649 -8.417356 0.9097476 21.15693 6.343622 3.180428 -19.89955 6.538686 1.452482 -17.87377 11.91663 91.52131 24.79617 -22.68743 -0 0 9.468795 -21.53693 13.96578 9.513933 6.144383 -25.05744 -6.209353 -84.95142 16.62438 12.1687 0 0 -25.33756 9.131803 11.85087 1.957146
-466.5922 104.8545 2965.112 -1.482371 -2.622354 -23.4574 3.431921 -25.92601 -0.8937832 -0 11.46887 -0 -5.9555 -1.408936 -4.214136 -3.947044 14.75804 -9.901229 -0 16.5944 -0 -2.890224 -18.57602 12.72134 -0.94498 -1.504122 3.561292 1.806125 12.65565 -8.804325 0.8562315 21.1341 6.444131 3.243867 -20.15234 6.590066 1.476679 -17.4008 11.90555 92.33794 24.84731 -24.04854 -0 0 8.292098 -20.95748 13.88562 8.963902 6.353568 -25.62798 -6.313964 -84.3729 16.5255 10.9366 0 0 -26.70765 9.76664 12.03826 1.196904
-469.3041 104.0078 2970.658 -1.714475 -2.890595 -23.27534 3.801951 -26.38149 -1.139609 -0 9.375321 -0 -5.930508 -0.6532177 -4.526517 -3.770561 15.26866 -8.875557 -0 21.44028 -0 -3.886279 -17.82663 11.67685 -0.92893 -1.572918 3.386126 1.932075 12.68105 -9.018001 0.8151523 21.11143 6.492596 3.292473 -20.35507 6.601263 1.479746 -17.22764 11.91621 92.78534 24.85855 -24.77302 -0 0 7.713468 -20.58848 13.78798 8.644187 6.468441 -25.97218 -6.375887 -84.15147 16.42061 10.42863 0 0 -27.35356 10.22106 12.19622 0.6498751
-472.1664 103.4943 2976.434 -1.99484 -3.542425 -23.1886 4.198713 -24.99655 -0.857843 -0 9.711851 -0 -5.559441 -0.08835758 -4.967947 -3.677064 14.55518 -7.964386 -0 28.29049 -0 -4.92778 -16.36329 11.07132 -0.9001024 -1.637097 3.393986 1.962257 12.74232 -9.051555 0.7878187 21.08905 6.48758 3.32383 -20.49815 6.571421 1.461113 -17.3591 11.94846 92.84334 24.84077 -24.83703 -0 0 7.751574 -20.44802 13.6838 8.567749 6.484984 -26.07879 -6.39557 -84.28437 16.31827 10.6569 0 0 -27.2586 10.47606 12.32046 0.3379329
-475.0976 103.467 2982.308 -2.294444 -4.365439 -23.24669 4.713117 -21.89149 -0.06623433 -0 11.31481 -0 -5.131008 -0.2629381 -5.370427 -3.53457 12.41091 -7.308187 -0 36.47876 -0 -5.786151 -14.28524 11.06413 -0.8606966 -1.692482 3.577708 1.898424 12.83491 -8.91074 0.7750171 21.06717 6.432195 3.336421 -20.57419 6.503878 1.424106 -17.77416 11.99972 92.52351 24.79909 -24.26489 -0 0 8.379378 -20.53836 13.58459 8.730497 6.405853 -25.951 -6.374028 -84.74606 16.22035 11.57387 0 0 -26.46358 10.51921 12.40425 0.2764917
-478.0082 103.9501 2988.099 -2.584086 -5.134149 -23.50977 5.320189 -17.43078 1.057718 -0 12.96144 -0 -4.902928 -1.495839 -5.562025 -3.246554 8.864579 -6.96377 -0 44.80011 -0 -6.301927 -11.83742 11.67561 -0.8137045 -1.734476 3.923011 1.745297 12.9516 -8.607351 0.7773726 21.04648 6.331393 3.329279 -20.57675 6.40386 1.372798 -18.43938 12.0662 91.85656 24.72805 -23.10483 -0 0 9.54628 -20.85416 13.49955 9.119655 6.237281 -25.60015 -6.312714 -85.5021 16.11964 13.10199 0 0 -25.03669 10.34492 12.43919 0.4730562
